<svg width="30" height="28" viewBox="0 0 30 28" fill="none" xmlns="http://www.w3.org/2000/svg">
<path d="M28.5782 13.7814L15.7063 0.91892C15.6137 0.826057 15.5036 0.752384 15.3824 0.702117C15.2612 0.651851 15.1313 0.625977 15.0001 0.625977C14.8689 0.625977 14.739 0.651851 14.6178 0.702117C14.4966 0.752384 14.3865 0.826057 14.2938 0.91892L1.42197 13.7814C1.04697 14.1564 0.834473 14.6658 0.834473 15.197C0.834473 16.3002 1.73135 17.197 2.83447 17.197H4.19072V26.3752C4.19072 26.9283 4.6376 27.3752 5.19072 27.3752H13.0001V20.3752H16.5001V27.3752H24.8095C25.3626 27.3752 25.8095 26.9283 25.8095 26.3752V17.197H27.1657C27.697 17.197 28.2063 16.9877 28.5813 16.6095C29.3595 15.8283 29.3595 14.5627 28.5782 13.7814Z" fill="#231F20"/>
</svg>
