<svg width="41" height="40" viewBox="0 0 41 40" fill="none" xmlns="http://www.w3.org/2000/svg">
<ellipse cx="20.5" cy="20" rx="20.5" ry="20" fill="#FBBF3B"/>
<g clip-path="url(#clip0_113_1244)">
<path d="M18.7062 30C18.7062 30 16.9124 30 16.9124 28.25C16.9124 26.5 18.7062 21.25 25.8812 21.25C33.0562 21.25 34.8499 26.5 34.8499 28.25C34.8499 30 33.0562 30 33.0562 30H18.7062ZM25.8812 19.5C27.3083 19.5 28.6771 18.9469 29.6863 17.9623C30.6954 16.9777 31.2624 15.6424 31.2624 14.25C31.2624 12.8576 30.6954 11.5223 29.6863 10.5377C28.6771 9.55312 27.3083 9 25.8812 9C24.454 9 23.0852 9.55312 22.076 10.5377C21.0669 11.5223 20.4999 12.8576 20.4999 14.25C20.4999 15.6424 21.0669 16.9777 22.076 17.9623C23.0852 18.9469 24.454 19.5 25.8812 19.5ZM15.5061 30C15.2403 29.4536 15.1077 28.8547 15.1187 28.25C15.1187 25.8787 16.3384 23.4375 18.5914 21.74C17.467 21.4013 16.2953 21.2359 15.1187 21.25C7.94365 21.25 6.1499 26.5 6.1499 28.25C6.1499 30 7.94365 30 7.94365 30H15.5061ZM14.2218 19.5C15.4111 19.5 16.5517 19.0391 17.3927 18.2186C18.2337 17.3981 18.7062 16.2853 18.7062 15.125C18.7062 13.9647 18.2337 12.8519 17.3927 12.0314C16.5517 11.2109 15.4111 10.75 14.2218 10.75C13.0324 10.75 11.8918 11.2109 11.0508 12.0314C10.2099 12.8519 9.7374 13.9647 9.7374 15.125C9.7374 16.2853 10.2099 17.3981 11.0508 18.2186C11.8918 19.0391 13.0324 19.5 14.2218 19.5Z" fill="white"/>
</g>
<defs>
<clipPath id="clip0_113_1244">
<rect width="32.8" height="32" fill="white" transform="translate(6.1499 5)"/>
</clipPath>
</defs>
</svg>
