<svg width="27" height="27" viewBox="0 0 27 27" fill="none" xmlns="http://www.w3.org/2000/svg">
<path fill-rule="evenodd" clip-rule="evenodd" d="M11.9999 0.666748C10.1926 0.666902 8.41167 1.09923 6.80553 1.92767C5.19938 2.75611 3.81464 3.95664 2.76683 5.42909C1.71902 6.90153 1.03853 8.60321 0.782127 10.3921C0.525725 12.1811 0.700849 14.0054 1.29289 15.7129C1.88493 17.4203 2.87671 18.9615 4.1855 20.2077C5.49429 21.4539 7.08212 22.3691 8.81653 22.8769C10.5509 23.3846 12.3816 23.4703 14.1559 23.1266C15.9301 22.783 17.5964 22.02 19.0159 20.9014L23.8852 25.7707C24.1367 26.0136 24.4735 26.148 24.8231 26.145C25.1726 26.1419 25.5071 26.0017 25.7543 25.7545C26.0015 25.5073 26.1417 25.1729 26.1447 24.8233C26.1478 24.4737 26.0134 24.1369 25.7705 23.8854L20.9012 19.0161C22.2185 17.3449 23.0387 15.3366 23.268 13.221C23.4972 11.1055 23.1262 8.96811 22.1975 7.05354C21.2687 5.13897 19.8197 3.52456 18.0163 2.39506C16.2128 1.26556 14.1278 0.666605 11.9999 0.666748ZM3.33318 12.0001C3.33318 9.70154 4.24628 7.49714 5.87159 5.87182C7.49691 4.24651 9.70131 3.33341 11.9999 3.33341C14.2984 3.33341 16.5028 4.24651 18.1281 5.87182C19.7534 7.49714 20.6665 9.70154 20.6665 12.0001C20.6665 14.2986 19.7534 16.503 18.1281 18.1283C16.5028 19.7537 14.2984 20.6667 11.9999 20.6667C9.70131 20.6667 7.49691 19.7537 5.87159 18.1283C4.24628 16.503 3.33318 14.2986 3.33318 12.0001Z" fill="black"/>
</svg>
