<svg width="27" height="27" viewBox="0 0 27 27" fill="none" xmlns="http://www.w3.org/2000/svg">
<path fill-rule="evenodd" clip-rule="evenodd" d="M12.0001 0.666748C10.1929 0.666902 8.41191 1.09923 6.80577 1.92767C5.19963 2.75611 3.81488 3.95664 2.76708 5.42909C1.71927 6.90153 1.03877 8.60321 0.782372 10.3921C0.52597 12.1811 0.701093 14.0054 1.29313 15.7129C1.88517 17.4203 2.87696 18.9615 4.18574 20.2077C5.49453 21.4539 7.08237 22.3691 8.81678 22.8769C10.5512 23.3846 12.3819 23.4703 14.1561 23.1266C15.9304 22.783 17.5967 22.02 19.0161 20.9014L23.8854 25.7707C24.1369 26.0136 24.4737 26.148 24.8233 26.145C25.1729 26.1419 25.5073 26.0017 25.7545 25.7545C26.0017 25.5073 26.142 25.1729 26.145 24.8233C26.148 24.4737 26.0136 24.1369 25.7708 23.8854L20.9014 19.0161C22.2188 17.3449 23.039 15.3366 23.2682 13.221C23.4975 11.1055 23.1265 8.96811 22.1977 7.05354C21.269 5.13897 19.8199 3.52456 18.0165 2.39506C16.2131 1.26556 14.128 0.666605 12.0001 0.666748ZM3.33343 12.0001C3.33343 9.70154 4.24652 7.49714 5.87184 5.87182C7.49715 4.24651 9.70155 3.33341 12.0001 3.33341C14.2986 3.33341 16.503 4.24651 18.1284 5.87182C19.7537 7.49714 20.6668 9.70154 20.6668 12.0001C20.6668 14.2986 19.7537 16.503 18.1284 18.1283C16.503 19.7537 14.2986 20.6667 12.0001 20.6667C9.70155 20.6667 7.49715 19.7537 5.87184 18.1283C4.24652 16.503 3.33343 14.2986 3.33343 12.0001Z" fill="#8A8A8A"/>
</svg>
